<?xml version="1.0" encoding="UTF-8"?>
<svg id="Capa_1" xmlns="http://www.w3.org/2000/svg" viewBox="0 0 794.1 805.79">
  <defs>
    <style>
      .cls-1 {
        fill: #fff;
      }
    </style>
  </defs>
  <path class="cls-1" d="M215.99,45.58c-32.3,16.6-77.69,45.37-119.3,93.47-26.82,31-45.24,62.13-57.81,88.55-8.2,17.23-30.19,66.69-36.9,135.29-7.93,81.08,9.97,143.17,15.99,162.35,24.91,79.35,62.3,110.8,76.53,138.69.48.95,2.13,4.23,3.42,3.98,2.8-.56,1.58-17.54,1.23-23.37-1.4-23.4.77-43.86,3.69-71.33,1.09-10.22,6.81-58.33,35.67-111.92,8.69-16.13,23.46-40.16,46.74-65.18,25.53-27.44,49.88-43.82,60.26-50.43,11.34-7.21,32.27-19.45,60.26-29.52,4.46-1.6,10.41-3.62,47.97-13.53,56.4-14.88,53.24-13.02,61.49-15.99,39.24-14.1,65-39.55,75.02-50.43,7.56-8.21,31.86-36.02,44.28-79.94,5.74-20.3,11.78-41.67,6.15-68.87-1.87-9.02-11.57-50.33-47.97-71.33-9.03-5.21-16.42-7.28-25.83-9.84-9.92-2.7-43.55-11.01-104.54-2.46-38.06,5.34-66.58,14.42-94.7,23.37-21.31,6.78-38.92,13.39-51.66,18.45Z"/>
  <path class="cls-1" d="M684.58,126.76c3.13,20.99,5.64,49.21,3.69,82.4-1.2,20.43-3.79,59.42-20.91,105.77-8.76,23.73-25.75,68.37-67.64,110.69-12.61,12.74-39.73,37.65-79.94,56.58-20.04,9.43-37.49,14.63-62.72,22.14-48.24,14.36-52.17,10.19-78.71,20.91-38.98,15.74-63.53,38.08-70.1,44.28-15.44,14.55-36.66,34.55-47.97,68.87-11.41,34.66-6.32,64.49-3.69,76.25,2.84,12.72,8.22,36.77,27.06,56.58,10.71,11.25,29.92,25.5,78.71,31.98,20.66,2.74,90.46,9.9,177.11-23.37,71.37-27.41,116.05-67.62,130.37-81.17,13.58-12.86,48.46-47.78,77.48-103.31,6.88-13.17,35.63-69.96,44.28-151.28,6.45-60.69-1.26-107.11-3.69-120.53-5.16-28.47-15.79-83.84-55.35-141.44-17.08-24.87-34.73-43.13-47.97-55.35"/>
  <path class="cls-1" d="M603.41,205.47h0c-3.9,8-9.61,19.11-17.22,31.98-9.38,15.86-19.89,33.64-36.9,52.89-17.54,19.85-34.8,33.12-45.51,40.59-31,21.62-59.31,31.04-81.17,38.13-27.96,9.07-27.14,5.35-57.81,14.76-28.31,8.69-53.42,16.4-81.17,34.44-35.94,23.36-56.29,51.05-62.72,60.26-23.03,33.02-30.97,63.6-34.44,77.48-7.68,30.78-3.99,44.09-7.4,61.55-.1.51-.44,2.2.02,2.41,1.76.78,12.36-21.61,23.37-40.59,4.51-7.77,18.97-31.99,41.82-57.81,12.37-13.97,25.49-28.6,46.74-43.05,15.52-10.55,28.24-16.15,41.82-22.14,7.04-3.1,25.84-11.12,75.02-24.6,37.6-10.31,33.67-7.55,47.97-12.3,16.12-5.35,50.19-17.02,82.4-45.51,39.28-34.74,53.81-74.54,56.58-82.4,7.66-21.8,9.43-40.55,9.84-45.51,1.35-16.24.28-30.14-1.23-40.59"/>
</svg>